<?xml version="1.0" encoding="UTF-8"?>
<svg xmlns="http://www.w3.org/2000/svg" xmlns:xlink="http://www.w3.org/1999/xlink" width="80" height="80" viewBox="0 0 2200 2000">
<path fill-rule="evenodd" fill="rgb(100%, 100%, 99.609375%)" fill-opacity="1" d="M 753.101562 1421 C 744.199219 1421 737.101562 1413.800781 737.101562 1405 C 737.101562 1034.898438 1038.5 733.5 1408.601562 733.5 C 1417.5 733.5 1424.601562 740.699219 1424.601562 749.5 C 1424.601562 758.398438 1417.398438 765.5 1408.601562 765.5 C 1056.199219 765.5 769.5 1052.101562 769.5 1404.601562 C 769.101562 1413.898438 761.898438 1421 753.101562 1421 "/>
<path fill-rule="evenodd" fill="rgb(100%, 100%, 99.609375%)" fill-opacity="1" d="M 1285.101562 868 C 1280.5 868 1275.800781 865.898438 1272.5 862.101562 C 1266.601562 855.398438 1267.898438 844.800781 1274.601562 839.300781 L 1382.898438 749.5 L 1274.601562 659.300781 C 1267.898438 653.398438 1266.601562 643.300781 1272.5 636.5 C 1278.398438 629.800781 1288.5 628.5 1295.300781 634.398438 L 1418.800781 736.800781 C 1422.601562 739.800781 1424.699219 744.398438 1424.699219 749.398438 C 1424.699219 754.5 1422.601562 758.699219 1418.800781 762 L 1295.300781 864.398438 C 1292.199219 866.699219 1288.5 868 1285.101562 868 "/>
<path fill-rule="evenodd" fill="rgb(100%, 100%, 99.609375%)" fill-opacity="1" d="M 1409.398438 2076.5 C 1351.199219 2076.5 1292.199219 2068.898438 1234.5 2053.300781 C 1226.101562 2051.199219 1220.601562 2041.898438 1223.101562 2033.5 C 1225.199219 2025.101562 1234.5 2019.601562 1242.898438 2022.101562 C 1407.699219 2066.398438 1580.101562 2043.601562 1727.699219 1958.398438 C 1875.699219 1873.199219 1981.5 1735.398438 2025.300781 1570.199219 C 2039.601562 1516.199219 2047.199219 1460.601562 2047.199219 1405 C 2047.199219 1396.101562 2054.398438 1389 2063.199219 1389 C 2072.101562 1389 2079.199219 1396.199219 2079.199219 1405 C 2079.199219 1463.601562 2071.601562 1522.199219 2056.398438 1578.699219 C 2010 1752 1898.699219 1896.5 1743.601562 1986.300781 C 1640.898438 2046.199219 1525.800781 2076.5 1409.398438 2076.5 "/>
<path fill-rule="evenodd" fill="rgb(100%, 100%, 99.609375%)" fill-opacity="1" d="M 1331.398438 2184.898438 C 1326.300781 2184.898438 1321.300781 2182.398438 1318.300781 2178.199219 L 1225.601562 2047.101562 C 1222.601562 2043.300781 1221.800781 2038.199219 1223.101562 2033.601562 C 1224.398438 2029 1227.699219 2025.199219 1232 2023.101562 L 1377.898438 1956.101562 C 1385.898438 1952.300781 1395.601562 1956.101562 1399.398438 1964.101562 C 1403.199219 1972.101562 1399.398438 1981.800781 1391.398438 1985.601562 L 1263.300781 2044.601562 L 1344.699219 2159.699219 C 1349.800781 2166.898438 1348.101562 2177 1340.898438 2182.5 C 1338.199219 2184 1334.800781 2184.898438 1331.398438 2184.898438 "/>
<path fill-rule="evenodd" fill="rgb(100%, 100%, 99.609375%)" fill-opacity="1" d="M 1085.300781 1564.800781 L 1412 1753.699219 L 1738.699219 1564.800781 L 1738.699219 1187.5 L 1412 998.699219 L 1085.300781 1187.5 Z M 1412 1788.199219 C 1409 1788.199219 1406.5 1787.398438 1404 1786.101562 L 1060.800781 1588 C 1055.699219 1585.101562 1052.800781 1579.601562 1052.800781 1574.101562 L 1052.800781 1178.300781 C 1052.800781 1172.398438 1055.800781 1167.300781 1060.800781 1164.398438 L 1404 966.199219 C 1409.101562 963.300781 1415.398438 963.300781 1420 966.199219 L 1763.101562 1164.300781 C 1768.199219 1167.300781 1771.101562 1172.699219 1771.101562 1178.199219 L 1771.101562 1574 C 1771.101562 1579.898438 1768.101562 1585 1763.101562 1587.898438 L 1420 1786.101562 C 1417.398438 1787.398438 1414.5 1788.199219 1412 1788.199219 "/>
<path fill-rule="evenodd" fill="rgb(100%, 100%, 99.609375%)" fill-opacity="1" d="M 1412 1392.398438 C 1409 1392.398438 1406.5 1391.601562 1404 1390.300781 L 1060.898438 1192.199219 C 1053.300781 1187.601562 1050.398438 1177.898438 1055 1170.300781 C 1059.601562 1162.699219 1069.300781 1159.800781 1076.898438 1164.398438 L 1420 1362.5 C 1427.601562 1367.101562 1430.5 1376.800781 1425.898438 1384.398438 C 1422.898438 1389.398438 1417.398438 1392.398438 1412 1392.398438 "/>
<path fill-rule="evenodd" fill="rgb(100%, 100%, 99.609375%)" fill-opacity="1" d="M 1412 1392.398438 C 1406.5 1392.398438 1401 1389.398438 1398.101562 1384.398438 C 1393.5 1376.800781 1396.398438 1366.699219 1404 1362.5 L 1747.101562 1164.398438 C 1754.699219 1159.800781 1764.800781 1162.699219 1769 1170.300781 C 1773.601562 1177.898438 1770.699219 1188 1763.101562 1192.199219 L 1420 1390.300781 C 1417.398438 1391.5 1414.5 1392.398438 1412 1392.398438 "/>
<path fill-rule="evenodd" fill="rgb(100%, 100%, 99.609375%)" fill-opacity="1" d="M 1412 1788.199219 C 1403.101562 1788.199219 1396 1781 1396 1772.199219 L 1396 1376.398438 C 1396 1367.5 1403.199219 1360.398438 1412 1360.398438 C 1420.898438 1360.398438 1428 1367.601562 1428 1376.398438 L 1428 1772.199219 C 1428 1781 1420.800781 1788.199219 1412 1788.199219 "/>
</svg>
